<?xml version="1.0" encoding="UTF-8"?>
<svg xmlns="http://www.w3.org/2000/svg" xmlns:xlink="http://www.w3.org/1999/xlink" width="179.35pt" height="181.67pt" viewBox="0 0 179.35 181.67" version="1.1">
<defs>
<clipPath id="clip1">
  <path d="M 61 134 L 118 134 L 118 158 L 61 158 Z M 61 134 "/>
</clipPath>
<clipPath id="clip2">
  <path d="M 68.71875 171.542969 C 69.839844 176.765625 72.59375 179.851563 75.296875 181.671875 L 104.101563 181.636719 C 107.585938 179.269531 111.148438 174.792969 111.148438 166.332031 L 111.148438 144.632813 C 111.148438 144.632813 111.597656 139.261719 116.519531 137.472656 C 116.519531 137.472656 119.425781 135.460938 116.292969 134.34375 C 116.292969 134.34375 102.648438 133.21875 102.648438 144.40625 L 102.648438 160.960938 C 102.648438 160.960938 103.1875 167.0625 99.964844 169.570313 L 99.964844 149.144531 C 99.964844 149.144531 100.1875 142.65625 103.542969 140.195313 C 103.542969 140.195313 105.78125 136.171875 100.859375 137.289063 C 100.859375 137.289063 91.464844 138.628906 91.019531 149.589844 L 90.804688 170.582031 L 88.542969 170.582031 L 88.332031 149.589844 C 87.886719 138.628906 78.488281 137.289063 78.488281 137.289063 C 73.570313 136.171875 75.804688 140.195313 75.804688 140.195313 C 79.160156 142.65625 79.386719 149.144531 79.386719 149.144531 L 79.386719 169.804688 C 76.160156 167.523438 76.703125 160.960938 76.703125 160.960938 L 76.703125 144.40625 C 76.703125 133.21875 63.054688 134.34375 63.054688 134.34375 C 59.921875 135.460938 62.832031 137.472656 62.832031 137.472656 C 67.753906 139.261719 68.203125 144.632813 68.203125 144.632813 L 68.203125 159.8125 Z M 68.71875 171.542969 "/>
</clipPath>
<clipPath id="clip3">
  <path d="M 0 0 L 179.351563 0 L 179.351563 139 L 0 139 Z M 0 0 "/>
</clipPath>
</defs>
<g id="surface1">
<path style=" stroke:none;fill-rule:nonzero;fill:rgb(61.599731%,86.299133%,95.298767%);fill-opacity:1;" d="M 140.714844 140.007813 C 140.714844 149.738281 118.179688 157.625 90.378906 157.625 C 62.574219 157.625 40.035156 149.738281 40.035156 140.007813 C 40.035156 130.277344 62.574219 122.386719 90.378906 122.386719 C 118.179688 122.386719 140.714844 130.277344 140.714844 140.007813 "/>
<g clip-path="url(#clip1)" clip-rule="nonzero">
<g clip-path="url(#clip2)" clip-rule="nonzero">
<path style=" stroke:none;fill-rule:nonzero;fill:rgb(48.999023%,73.699951%,90.59906%);fill-opacity:1;" d="M 140.714844 140.007813 C 140.714844 149.738281 118.179688 157.625 90.378906 157.625 C 62.574219 157.625 40.035156 149.738281 40.035156 140.007813 C 40.035156 130.277344 62.574219 122.386719 90.378906 122.386719 C 118.179688 122.386719 140.714844 130.277344 140.714844 140.007813 "/>
</g>
</g>
<path style=" stroke:none;fill-rule:nonzero;fill:rgb(61.599731%,86.299133%,95.298767%);fill-opacity:1;" d="M 32.871094 88.203125 L 31.417969 93.265625 C 31.417969 93.265625 31.042969 95.09375 32.765625 95.417969 C 34.566406 95.382813 34.417969 93.699219 34.292969 93.152344 L 32.871094 88.203125 "/>
<g clip-path="url(#clip3)" clip-rule="nonzero">
<path style=" stroke:none;fill-rule:nonzero;fill:rgb(0.799561%,1.199341%,1.199341%);fill-opacity:1;" d="M 179.214844 66.976563 L 179.347656 66.316406 C 164.582031 63.363281 149.425781 63.335938 140.257813 63.714844 C 141.765625 58.289063 142.21875 52.046875 142.21875 45.082031 C 142.21875 35.097656 138.464844 27.109375 132.375 21.027344 C 133.441406 17.59375 134.863281 9.964844 130.957031 0.195313 C 130.957031 0.195313 124.066406 -1.992188 108.480469 8.4375 C 102.371094 6.914063 95.875 6.160156 89.367188 6.160156 C 82.207031 6.160156 74.972656 7.070313 68.222656 8.921875 C 52.140625 -2.054688 45.039063 0.195313 45.039063 0.195313 C 40.402344 11.785156 43.269531 20.367188 44.140625 22.496094 C 38.691406 28.378906 35.363281 35.882813 35.363281 45.082031 C 35.363281 52.027344 36.15625 58.261719 38.089844 63.675781 C 28.84375 63.339844 14.238281 63.46875 0 66.316406 L 0.132813 66.976563 C 14.457031 64.109375 29.152344 64.011719 38.339844 64.359375 C 38.765625 65.480469 39.238281 66.566406 39.773438 67.617188 C 30.683594 67.910156 15.167969 69.070313 0.296875 73.265625 L 0.476563 73.910156 C 15.46875 69.683594 31.117188 68.554688 40.117188 68.277344 C 45.546875 78.398438 56.253906 84.9375 75.296875 86.988281 C 72.59375 88.804688 69.839844 91.894531 68.71875 97.117188 C 65.035156 98.878906 53.378906 103.179688 46.382813 91.148438 C 46.382813 91.148438 42.464844 83.988281 34.96875 83.425781 C 34.96875 83.425781 27.699219 83.316406 34.46875 87.957031 C 34.46875 87.957031 39.332031 90.25 42.691406 98.867188 C 42.691406 98.867188 47.070313 113.5625 68.203125 108.847656 L 68.203125 124.027344 C 68.203125 124.027344 67.753906 129.394531 62.832031 131.183594 C 62.832031 131.183594 59.921875 133.199219 63.054688 134.316406 C 63.054688 134.316406 76.703125 135.433594 76.703125 124.25 L 76.703125 107.699219 C 76.703125 107.699219 76.160156 101.132813 79.386719 98.851563 L 79.386719 126.039063 C 79.386719 126.039063 79.160156 132.527344 75.804688 134.988281 C 75.804688 134.988281 73.570313 139.011719 78.488281 137.894531 C 78.488281 137.894531 87.886719 136.554688 88.332031 125.59375 L 88.546875 98.078125 L 90.804688 98.078125 L 91.019531 125.59375 C 91.464844 136.554688 100.859375 137.894531 100.859375 137.894531 C 105.78125 139.011719 103.542969 134.988281 103.542969 134.988281 C 100.1875 132.527344 99.964844 126.039063 99.964844 126.039063 L 99.964844 99.085938 C 103.1875 101.597656 102.648438 107.699219 102.648438 107.699219 L 102.648438 124.25 C 102.648438 135.433594 116.292969 134.316406 116.292969 134.316406 C 119.425781 133.199219 116.519531 131.183594 116.519531 131.183594 C 111.597656 129.394531 111.148438 124.027344 111.148438 124.027344 L 111.148438 102.328125 C 111.148438 93.867188 107.585938 89.386719 104.101563 87.023438 C 124.414063 85.007813 134.160156 78.449219 138.648438 68.261719 C 147.546875 68.503906 163.554688 69.589844 178.871094 73.910156 L 179.050781 73.265625 C 163.824219 68.96875 147.921875 67.859375 138.933594 67.597656 C 139.359375 66.566406 139.730469 65.496094 140.0625 64.394531 C 149.167969 64.007813 164.390625 64.011719 179.214844 66.976563 "/>
</g>
<path style=" stroke:none;fill-rule:nonzero;fill:rgb(96.499634%,80.39856%,70.199585%);fill-opacity:1;" d="M 122.351563 44.613281 C 126.726563 48.574219 129.285156 53.359375 129.285156 58.515625 C 129.285156 82.59375 111.339844 83.246094 89.203125 83.246094 C 67.0625 83.246094 49.113281 79.910156 49.113281 58.515625 C 49.113281 53.394531 51.640625 48.640625 55.960938 44.691406 C 63.164063 38.113281 75.363281 41.597656 89.203125 41.597656 C 102.984375 41.597656 115.136719 38.078125 122.351563 44.613281 "/>
<path style=" stroke:none;fill-rule:nonzero;fill:rgb(100%,100%,100%);fill-opacity:1;" d="M 75.871094 59.746094 C 75.871094 66.375 72.136719 71.75 67.53125 71.75 C 62.925781 71.75 59.191406 66.375 59.191406 59.746094 C 59.191406 53.113281 62.925781 47.742188 67.53125 47.742188 C 72.136719 47.742188 75.871094 53.113281 75.871094 59.746094 "/>
<path style=" stroke:none;fill-rule:nonzero;fill:rgb(68.598938%,36.099243%,31.799316%);fill-opacity:1;" d="M 73.195313 59.894531 C 73.195313 64.316406 70.703125 67.898438 67.636719 67.898438 C 64.5625 67.898438 62.074219 64.316406 62.074219 59.894531 C 62.074219 55.472656 64.5625 51.890625 67.636719 51.890625 C 70.703125 51.890625 73.195313 55.472656 73.195313 59.894531 "/>
<path style=" stroke:none;fill-rule:nonzero;fill:rgb(100%,100%,100%);fill-opacity:1;" d="M 120.617188 59.746094 C 120.617188 66.375 116.882813 71.75 112.277344 71.75 C 107.671875 71.75 103.9375 66.375 103.9375 59.746094 C 103.9375 53.113281 107.671875 47.742188 112.277344 47.742188 C 116.882813 47.742188 120.617188 53.113281 120.617188 59.746094 "/>
<path style=" stroke:none;fill-rule:nonzero;fill:rgb(68.598938%,36.099243%,31.799316%);fill-opacity:1;" d="M 117.941406 59.894531 C 117.941406 64.316406 115.449219 67.898438 112.378906 67.898438 C 109.308594 67.898438 106.820313 64.316406 106.820313 59.894531 C 106.820313 55.472656 109.308594 51.890625 112.378906 51.890625 C 115.449219 51.890625 117.941406 55.472656 117.941406 59.894531 "/>
<path style=" stroke:none;fill-rule:nonzero;fill:rgb(68.598938%,36.099243%,31.799316%);fill-opacity:1;" d="M 91.40625 70.40625 C 91.40625 71.558594 90.472656 72.492188 89.320313 72.492188 C 88.164063 72.492188 87.230469 71.558594 87.230469 70.40625 C 87.230469 69.253906 88.164063 68.320313 89.320313 68.320313 C 90.472656 68.320313 91.40625 69.253906 91.40625 70.40625 "/>
<path style=" stroke:none;fill-rule:nonzero;fill:rgb(68.598938%,36.099243%,31.799316%);fill-opacity:1;" d="M 84.460938 75.679688 C 84.335938 75.332031 84.519531 74.949219 84.867188 74.824219 C 85.21875 74.703125 85.601563 74.886719 85.722656 75.234375 C 86.261719 76.75 87.699219 77.765625 89.300781 77.765625 C 90.90625 77.765625 92.34375 76.75 92.878906 75.234375 C 93.003906 74.882813 93.386719 74.703125 93.734375 74.824219 C 94.085938 74.949219 94.265625 75.332031 94.144531 75.679688 C 93.417969 77.730469 91.472656 79.105469 89.300781 79.105469 C 87.132813 79.105469 85.183594 77.730469 84.460938 75.679688 "/>
<path style=" stroke:none;fill-rule:nonzero;fill:rgb(76.899719%,89.7995%,85.099792%);fill-opacity:1;" d="M 38.214844 85.21875 C 38.214844 85.773438 37.5625 86.222656 36.761719 86.222656 C 35.957031 86.222656 35.304688 85.773438 35.304688 85.21875 C 35.304688 84.660156 35.957031 84.210938 36.761719 84.210938 C 37.5625 84.210938 38.214844 84.660156 38.214844 85.21875 "/>
<path style=" stroke:none;fill-rule:nonzero;fill:rgb(76.899719%,89.7995%,85.099792%);fill-opacity:1;" d="M 42.242188 87.453125 C 42.242188 88.011719 41.589844 88.460938 40.785156 88.460938 C 39.984375 88.460938 39.332031 88.011719 39.332031 87.453125 C 39.332031 86.898438 39.984375 86.449219 40.785156 86.449219 C 41.589844 86.449219 42.242188 86.898438 42.242188 87.453125 "/>
<path style=" stroke:none;fill-rule:nonzero;fill:rgb(76.899719%,89.7995%,85.099792%);fill-opacity:1;" d="M 44.703125 90.363281 C 44.703125 90.917969 44.050781 91.371094 43.246094 91.371094 C 42.445313 91.371094 41.792969 90.917969 41.792969 90.363281 C 41.792969 89.808594 42.445313 89.355469 43.246094 89.355469 C 44.050781 89.355469 44.703125 89.808594 44.703125 90.363281 "/>
<path style=" stroke:none;fill-rule:nonzero;fill:rgb(76.899719%,89.7995%,85.099792%);fill-opacity:1;" d="M 46.941406 93.71875 C 46.941406 94.277344 46.289063 94.726563 45.484375 94.726563 C 44.683594 94.726563 44.03125 94.277344 44.03125 93.71875 C 44.03125 93.164063 44.683594 92.710938 45.484375 92.710938 C 46.289063 92.710938 46.941406 93.164063 46.941406 93.71875 "/>
<path style=" stroke:none;fill-rule:nonzero;fill:rgb(76.899719%,89.7995%,85.099792%);fill-opacity:1;" d="M 49.402344 96.851563 C 49.402344 97.40625 48.75 97.859375 47.949219 97.859375 C 47.144531 97.859375 46.492188 97.40625 46.492188 96.851563 C 46.492188 96.296875 47.144531 95.84375 47.949219 95.84375 C 48.75 95.84375 49.402344 96.296875 49.402344 96.851563 "/>
<path style=" stroke:none;fill-rule:nonzero;fill:rgb(76.899719%,89.7995%,85.099792%);fill-opacity:1;" d="M 52.757813 99.535156 C 52.757813 100.09375 52.105469 100.542969 51.300781 100.542969 C 50.5 100.542969 49.847656 100.09375 49.847656 99.535156 C 49.847656 98.980469 50.5 98.53125 51.300781 98.53125 C 52.105469 98.53125 52.757813 98.980469 52.757813 99.535156 "/>
<path style=" stroke:none;fill-rule:nonzero;fill:rgb(76.899719%,89.7995%,85.099792%);fill-opacity:1;" d="M 57.457031 101.328125 C 57.457031 101.882813 56.804688 102.332031 56.003906 102.332031 C 55.199219 102.332031 54.546875 101.882813 54.546875 101.328125 C 54.546875 100.769531 55.199219 100.320313 56.003906 100.320313 C 56.804688 100.320313 57.457031 100.769531 57.457031 101.328125 "/>
<path style=" stroke:none;fill-rule:nonzero;fill:rgb(76.899719%,89.7995%,85.099792%);fill-opacity:1;" d="M 62.132813 101.328125 C 62.132813 101.882813 61.480469 102.332031 60.675781 102.332031 C 59.875 102.332031 59.222656 101.882813 59.222656 101.328125 C 59.222656 100.769531 59.875 100.320313 60.675781 100.320313 C 61.480469 100.320313 62.132813 100.769531 62.132813 101.328125 "/>
<path style=" stroke:none;fill-rule:nonzero;fill:rgb(76.899719%,89.7995%,85.099792%);fill-opacity:1;" d="M 66.878906 100.546875 C 66.878906 101.105469 66.226563 101.554688 65.421875 101.554688 C 64.621094 101.554688 63.96875 101.105469 63.96875 100.546875 C 63.96875 99.992188 64.621094 99.539063 65.421875 99.539063 C 66.226563 99.539063 66.878906 99.992188 66.878906 100.546875 "/>
</g>
</svg>
